<svg data-v-423bf9ae="" xmlns="http://www.w3.org/2000/svg" viewBox="0 0 527 90" class="iconLeft"><!----><!----><!----><g data-v-423bf9ae="" id="e4a2425e-4dd0-4d06-939b-2ab99c7685b5" fill="#CD8B7C" transform="matrix(4.184100151062012,0,0,4.184100151062012,107.36400604248047,1.8200876712799072)"><path d="M6.48 11.67L9.47 3.74L12.21 3.74L12.21 4.02L11.02 4.51L11.02 13.05L12.28 13.54L12.28 13.82L8.85 13.82L8.85 13.54L9.94 13.05L9.94 5.21L9.86 5.21L6.64 13.82L5.95 13.82L2.87 5.18L2.80 5.18L2.80 12.98L3.92 13.54L3.92 13.82L0.70 13.82L0.70 13.54L1.89 12.98L1.89 4.51L0.63 4.02L0.63 3.74L3.89 3.74L3.92 4.39L6.43 11.67L6.48 11.67ZM13.88 7.59L12.63 7.10L12.63 6.82L16.25 6.82L16.25 7.10L15.19 7.52L17.21 12.10L18.85 7.49L17.85 7.10L17.85 6.82L20.83 6.82L20.83 7.10L19.57 7.59L17.33 13.82L15.79 17.49L14.63 17.28L14.50 17.00L16.67 13.58L13.88 7.55L13.88 7.59ZM26.04 14.10L26.04 14.10L26.04 14.10Q24.72 14.10 23.68 13.46L23.68 13.46L23.68 13.46Q22.65 12.82 22.05 11.61L22.05 11.61L22.05 11.61Q21.46 10.40 21.46 8.81L21.46 8.81L21.46 8.81Q21.46 7.62 21.83 6.61L21.83 6.61L21.83 6.61Q22.20 5.59 22.85 4.90L22.85 4.90L22.85 4.90Q23.50 4.21 24.36 3.82L24.36 3.82L24.36 3.82Q25.23 3.43 26.22 3.43L26.22 3.43L26.22 3.43Q27.19 3.43 28.03 3.82L28.03 3.82L28.03 3.82Q28.87 4.20 29.47 4.89L29.47 4.89L29.47 4.89Q30.07 5.58 30.41 6.59L30.41 6.59L30.41 6.59Q30.75 7.60 30.75 8.80L30.75 8.80L30.75 8.80Q30.75 9.99 30.38 10.99L30.38 10.99L30.38 10.99Q30.01 12.00 29.37 12.67L29.37 12.67L29.37 12.67Q28.74 13.35 27.87 13.73L27.87 13.73L27.87 13.73Q27.01 14.10 26.04 14.10ZM26.12 4.20L26.12 4.20L26.12 4.20Q25.16 4.20 24.44 4.80L24.44 4.80L24.44 4.80Q23.71 5.39 23.32 6.43L23.32 6.43L23.32 6.43Q22.93 7.47 22.93 8.81L22.93 8.81L22.93 8.81Q22.93 10.85 23.80 12.10L23.80 12.10L23.80 12.10Q24.68 13.36 26.12 13.36L26.12 13.36L26.12 13.36Q27.54 13.36 28.41 12.09L28.41 12.09L28.41 12.09Q29.29 10.83 29.29 8.80L29.29 8.80L29.29 8.80Q29.29 6.76 28.41 5.48L28.41 5.48L28.41 5.48Q27.54 4.20 26.12 4.20ZM34.60 13.05L35.79 13.54L35.79 13.82L32.09 13.82L32.09 13.54L33.35 13.05L33.35 7.92L32.09 7.42L32.09 7.14L34.47 6.65L34.60 6.79L34.60 7.62L34.60 7.62Q35.09 7.17 35.74 6.91L35.74 6.91L35.74 6.91Q36.39 6.65 37.02 6.65L37.02 6.65L37.02 6.65Q37.93 6.65 38.54 7.21L38.54 7.21L38.54 7.21Q39.14 7.77 39.14 8.88L39.14 8.88L39.14 13.05L40.40 13.54L40.40 13.82L36.69 13.82L36.69 13.54L37.88 13.05L37.88 9.30L37.88 9.30Q37.88 8.31 37.53 7.93L37.53 7.93L37.53 7.93Q37.18 7.55 36.33 7.55L36.33 7.55L36.33 7.55Q35.31 7.55 34.60 8.16L34.60 8.16L34.60 13.05ZM43.55 13.05L44.81 13.54L44.81 13.82L41.03 13.82L41.03 13.54L42.29 13.05L42.29 4.42L41.03 3.92L41.03 3.64L43.42 3.15L43.55 3.29L43.55 13.05ZM48.45 13.05L49.71 13.54L49.71 13.82L45.93 13.82L45.93 13.54L47.19 13.05L47.19 7.92L45.93 7.42L45.93 7.14L48.31 6.65L48.45 6.79L48.45 13.05ZM46.73 4.59L46.73 4.59L46.73 4.59Q46.73 4.24 46.98 3.99L46.98 3.99L46.98 3.99Q47.23 3.74 47.60 3.74L47.60 3.74L47.60 3.74Q47.95 3.74 48.20 3.99L48.20 3.99L48.20 3.99Q48.45 4.24 48.45 4.59L48.45 4.59L48.45 4.59Q48.45 4.96 48.20 5.21L48.20 5.21L48.20 5.21Q47.95 5.46 47.60 5.46L47.60 5.46L47.60 5.46Q47.23 5.46 46.98 5.21L46.98 5.21L46.98 5.21Q46.73 4.96 46.73 4.59ZM53.14 13.05L54.33 13.54L54.33 13.82L50.62 13.82L50.62 13.54L51.88 13.05L51.88 7.92L50.62 7.42L50.62 7.14L53.00 6.65L53.14 6.79L53.14 7.62L53.14 7.62Q53.62 7.17 54.27 6.91L54.27 6.91L54.27 6.91Q54.92 6.65 55.55 6.65L55.55 6.65L55.55 6.65Q56.46 6.65 57.07 7.21L57.07 7.21L57.07 7.21Q57.67 7.77 57.67 8.88L57.67 8.88L57.67 13.05L58.93 13.54L58.93 13.82L55.22 13.82L55.22 13.54L56.42 13.05L56.42 9.30L56.42 9.30Q56.42 8.31 56.06 7.93L56.06 7.93L56.06 7.93Q55.71 7.55 54.86 7.55L54.86 7.55L54.86 7.55Q53.84 7.55 53.14 8.16L53.14 8.16L53.14 13.05ZM65.81 10.17L65.61 10.36L61.19 10.36L61.19 10.36Q61.20 11.13 61.41 11.70L61.41 11.70L61.41 11.70Q61.62 12.26 61.98 12.58L61.98 12.58L61.98 12.58Q62.34 12.91 62.78 13.06L62.78 13.06L62.78 13.06Q63.21 13.21 63.72 13.21L63.72 13.21L63.72 13.21Q64.44 13.21 65.25 12.73L65.25 12.73L65.46 13.14L65.46 13.14Q64.89 13.64 64.31 13.82L64.31 13.82L64.31 13.82Q63.74 13.99 63.01 13.99L63.01 13.99L63.01 13.99Q62.37 13.99 61.78 13.72L61.78 13.72L61.78 13.72Q61.20 13.45 60.75 12.98L60.75 12.98L60.75 12.98Q60.31 12.50 60.04 11.81L60.04 11.81L60.04 11.81Q59.77 11.12 59.77 10.32L59.77 10.32L59.77 10.32Q59.77 9.56 59.97 8.94L59.97 8.94L59.97 8.94Q60.16 8.31 60.48 7.90L60.48 7.90L60.48 7.90Q60.81 7.48 61.23 7.19L61.23 7.19L61.23 7.19Q61.66 6.90 62.11 6.78L62.11 6.78L62.11 6.78Q62.56 6.65 63.02 6.65L63.02 6.65L63.02 6.65Q63.60 6.65 64.10 6.87L64.10 6.87L64.10 6.87Q64.59 7.08 64.98 7.50L64.98 7.50L64.98 7.50Q65.37 7.92 65.59 8.61L65.59 8.61L65.59 8.61Q65.81 9.29 65.81 10.17L65.81 10.17ZM63.05 7.31L63.05 7.31L63.05 7.31Q62.26 7.31 61.79 7.94L61.79 7.94L61.79 7.94Q61.33 8.56 61.22 9.64L61.22 9.64L64.48 9.64L64.48 9.64Q64.48 8.54 64.11 7.93L64.11 7.93L64.11 7.93Q63.74 7.31 63.05 7.31ZM67.42 11.09L68.09 12.93L68.09 12.93Q69.17 13.19 69.88 13.19L69.88 13.19L69.88 13.19Q70.25 13.19 70.61 13.11L70.61 13.11L70.61 13.11Q70.97 13.04 71.25 12.84L71.25 12.84L71.25 12.84Q71.54 12.65 71.71 12.34L71.71 12.34L71.71 12.34Q71.89 12.02 71.89 11.54L71.89 11.54L71.89 11.54Q71.89 11.22 71.80 10.95L71.80 10.95L71.80 10.95Q71.71 10.67 71.47 10.40L71.47 10.40L71.47 10.40Q71.24 10.12 70.83 9.84L70.83 9.84L70.83 9.84Q70.43 9.56 69.80 9.21L69.80 9.21L69.80 9.21Q69.12 8.85 68.62 8.51L68.62 8.51L68.62 8.51Q68.13 8.18 67.80 7.83L67.80 7.83L67.80 7.83Q67.48 7.47 67.32 7.06L67.32 7.06L67.32 7.06Q67.17 6.65 67.17 6.13L67.17 6.13L67.17 6.13Q67.17 3.55 70.39 3.55L70.39 3.55L70.39 3.55Q71.53 3.55 72.80 3.87L72.80 3.87L72.80 6.23L72.52 6.23L71.78 4.50L71.78 4.50Q71.05 4.35 70.47 4.35L70.47 4.35L70.47 4.35Q69.49 4.35 68.95 4.72L68.95 4.72L68.95 4.72Q68.40 5.09 68.40 5.87L68.40 5.87L68.40 5.87Q68.40 6.15 68.48 6.39L68.48 6.39L68.48 6.39Q68.55 6.64 68.78 6.90L68.78 6.90L68.78 6.90Q69.02 7.17 69.44 7.47L69.44 7.47L69.44 7.47Q69.86 7.77 70.55 8.16L70.55 8.16L70.55 8.16Q71.24 8.52 71.75 8.84L71.75 8.84L71.75 8.84Q72.26 9.15 72.59 9.48L72.59 9.48L72.59 9.48Q72.93 9.82 73.09 10.21L73.09 10.21L73.09 10.21Q73.26 10.60 73.26 11.11L73.26 11.11L73.26 11.11Q73.26 11.93 72.99 12.48L72.99 12.48L72.99 12.48Q72.71 13.03 72.25 13.37L72.25 13.37L72.25 13.37Q71.79 13.71 71.18 13.85L71.18 13.85L71.18 13.85Q70.56 13.99 69.88 13.99L69.88 13.99L69.88 13.99Q69.49 13.99 69.15 13.97L69.15 13.97L69.15 13.97Q68.81 13.95 68.48 13.89L68.48 13.89L68.48 13.89Q68.15 13.84 67.81 13.76L67.81 13.76L67.81 13.76Q67.47 13.67 67.07 13.56L67.07 13.56L67.07 11.09L67.42 11.09ZM79.00 7.36L76.75 7.77L76.75 11.58L76.75 11.58Q76.75 12.04 76.83 12.36L76.83 12.36L76.83 12.36Q76.90 12.67 77.04 12.83L77.04 12.83L77.04 12.83Q77.18 12.98 77.33 13.04L77.33 13.04L77.33 13.04Q77.49 13.10 77.71 13.10L77.71 13.10L77.71 13.10Q78.12 13.10 78.40 13.03L78.40 13.03L78.40 13.03Q78.67 12.95 79.00 12.76L79.00 12.76L79.21 13.19L79.21 13.19Q78.24 13.99 77.10 13.99L77.10 13.99L77.10 13.99Q76.43 13.99 75.96 13.46L75.96 13.46L75.96 13.46Q75.50 12.93 75.50 11.98L75.50 11.98L75.50 7.77L74.22 7.42L74.22 7.14L75.55 6.86L76.06 4.98L76.75 4.98L76.75 6.86L78.76 6.86L79.00 6.95L79.00 7.36ZM83.71 6.65L83.71 6.65L83.71 6.65Q84.49 6.65 85.11 6.92L85.11 6.92L85.11 6.92Q85.73 7.18 86.16 7.67L86.16 7.67L86.16 7.67Q86.59 8.15 86.82 8.83L86.82 8.83L86.82 8.83Q87.05 9.50 87.05 10.32L87.05 10.32L87.05 10.32Q87.05 11.14 86.82 11.81L86.82 11.81L86.82 11.81Q86.60 12.49 86.17 12.97L86.17 12.97L86.17 12.97Q85.74 13.46 85.11 13.73L85.11 13.73L85.11 13.73Q84.49 13.99 83.71 13.99L83.71 13.99L83.71 13.99Q82.91 13.99 82.29 13.73L82.29 13.73L82.29 13.73Q81.67 13.46 81.24 12.97L81.24 12.97L81.24 12.97Q80.81 12.49 80.58 11.82L80.58 11.82L80.58 11.82Q80.36 11.14 80.36 10.32L80.36 10.32L80.36 10.32Q80.36 9.50 80.59 8.83L80.59 8.83L80.59 8.83Q80.81 8.15 81.25 7.67L81.25 7.67L81.25 7.67Q81.68 7.18 82.30 6.92L82.30 6.92L82.30 6.92Q82.92 6.65 83.71 6.65ZM82.22 8.10L82.22 8.10L82.22 8.10Q81.69 8.96 81.69 10.32L81.69 10.32L81.69 10.32Q81.69 11.00 81.82 11.56L81.82 11.56L81.82 11.56Q81.96 12.13 82.21 12.53L82.21 12.53L82.21 12.53Q82.47 12.94 82.84 13.17L82.84 13.17L82.84 13.17Q83.22 13.39 83.71 13.39L83.71 13.39L83.71 13.39Q84.19 13.39 84.57 13.17L84.57 13.17L84.57 13.17Q84.96 12.94 85.22 12.53L85.22 12.53L85.22 12.53Q85.48 12.13 85.62 11.56L85.62 11.56L85.62 11.56Q85.76 11.00 85.76 10.32L85.76 10.32L85.76 10.32Q85.76 9.65 85.62 9.09L85.62 9.09L85.62 9.09Q85.48 8.52 85.22 8.12L85.22 8.12L85.22 8.12Q84.96 7.71 84.57 7.48L84.57 7.48L84.57 7.48Q84.19 7.25 83.71 7.25L83.71 7.25L83.71 7.25Q82.74 7.25 82.22 8.10ZM90.69 13.05L92.30 13.54L92.30 13.82L88.17 13.82L88.17 13.54L89.43 13.05L89.43 7.92L88.17 7.42L88.17 7.14L90.55 6.65L90.69 6.79L90.69 7.64L90.69 7.64Q91.72 6.65 93.42 6.65L93.42 6.65L93.42 8.17L93.14 8.26L92.14 7.72L92.14 7.72Q91.83 7.72 91.44 7.85L91.44 7.85L91.44 7.85Q91.04 7.98 90.69 8.24L90.69 8.24L90.69 13.05ZM100.29 10.17L100.09 10.36L95.67 10.36L95.67 10.36Q95.68 11.13 95.89 11.70L95.89 11.70L95.89 11.70Q96.10 12.26 96.46 12.58L96.46 12.58L96.46 12.58Q96.82 12.91 97.26 13.06L97.26 13.06L97.26 13.06Q97.69 13.21 98.21 13.21L98.21 13.21L98.21 13.21Q98.92 13.21 99.73 12.73L99.73 12.73L99.94 13.14L99.94 13.14Q99.37 13.64 98.79 13.82L98.79 13.82L98.79 13.82Q98.22 13.99 97.49 13.99L97.49 13.99L97.49 13.99Q96.85 13.99 96.26 13.72L96.26 13.72L96.26 13.72Q95.68 13.45 95.23 12.98L95.23 12.98L95.23 12.98Q94.79 12.50 94.52 11.81L94.52 11.81L94.52 11.81Q94.25 11.12 94.25 10.32L94.25 10.32L94.25 10.32Q94.25 9.56 94.45 8.94L94.45 8.94L94.45 8.94Q94.64 8.31 94.96 7.90L94.96 7.90L94.96 7.90Q95.29 7.48 95.71 7.19L95.71 7.19L95.71 7.19Q96.14 6.90 96.59 6.78L96.59 6.78L96.59 6.78Q97.04 6.65 97.50 6.65L97.50 6.65L97.50 6.65Q98.08 6.65 98.58 6.87L98.58 6.87L98.58 6.87Q99.07 7.08 99.46 7.50L99.46 7.50L99.46 7.50Q99.85 7.92 100.07 8.61L100.07 8.61L100.07 8.61Q100.29 9.29 100.29 10.17L100.29 10.17ZM97.53 7.31L97.53 7.31L97.53 7.31Q96.74 7.31 96.27 7.94L96.27 7.94L96.27 7.94Q95.81 8.56 95.70 9.64L95.70 9.64L98.96 9.64L98.96 9.64Q98.96 8.54 98.59 7.93L98.59 7.93L98.59 7.93Q98.22 7.31 97.53 7.31Z"></path></g><!----><g data-v-423bf9ae="" id="2b5f6a3d-fd94-4238-8cb6-4659edd4290e" transform="matrix(2.8125,0,0,2.8125,0,1.0290032625198364)" stroke="none" fill="#CD8B7C"><path d="M0 31.984h32v-32H0v32zm2-30h28v28H2v-28z"></path><path d="M6.439 16.831h8.959l-4.48-7.741zM16.602 13.331h8.959L21.082 5.59zM6.439 26.41h8.959l-4.48-7.741zM16.602 22.91h8.959l-4.479-7.741z"></path></g><!----></svg>